<svg width="36" height="26" viewBox="0 0 36 26" fill="none" xmlns="http://www.w3.org/2000/svg">
<g clip-path="url(#clip0)">
<path d="M16.2674 25.4115C15.7392 25.412 15.2186 25.2833 14.75 25.0364C14.2813 24.7895 13.8783 24.4317 13.5752 23.9934L0.596392 5.24387C0.348543 4.88557 0.172756 4.48132 0.0790682 4.05417C-0.0146199 3.62703 -0.0243746 3.18537 0.0503613 2.75441C0.125097 2.32345 0.28286 1.91163 0.514642 1.54245C0.746424 1.17328 1.04769 0.85399 1.40123 0.60281C1.75477 0.35163 2.15367 0.173481 2.57514 0.078534C2.99662 -0.0164132 3.43242 -0.0262989 3.85767 0.0494413C4.28292 0.125181 4.68928 0.285064 5.05356 0.519961C5.41784 0.754858 5.73289 1.06017 5.98074 1.41846L18.9552 20.1673C19.3005 20.6662 19.5041 21.2515 19.544 21.8595C19.5839 22.4676 19.4584 23.075 19.1812 23.6158C18.904 24.1566 18.4858 24.61 17.972 24.9266C17.4583 25.2432 16.8687 25.4109 16.2674 25.4115Z" fill="#B50CD1"/>
<path d="M23.4632 25.4118C22.5914 25.4118 21.7554 25.0608 21.139 24.4361C20.5225 23.8114 20.1762 22.9641 20.1762 22.0806C20.1762 21.1972 20.5225 20.3499 21.139 19.7252C21.7554 19.1005 22.5914 18.7495 23.4632 18.7495C25.0341 18.7332 26.5353 18.0893 27.6405 16.9577C28.7456 15.8262 29.3656 14.2983 29.3656 12.7062C29.3656 11.1141 28.7456 9.58623 27.6405 8.45466C26.5353 7.3231 25.0341 6.67921 23.4632 6.66289H12.2087C11.3368 6.66289 10.5007 6.3119 9.88421 5.68714C9.26772 5.06237 8.92139 4.215 8.92139 3.33145C8.92139 2.44789 9.26772 1.60053 9.88421 0.975758C10.5007 0.350991 11.3368 0 12.2087 0L23.4632 0C30.3758 0 36 5.70036 36 12.7059C36 19.7114 30.3758 25.4118 23.4632 25.4118Z" fill="#CE48E4"/>
<g opacity="0.78">
<path opacity="0.78" d="M3.28696 25.4126C2.41525 25.4124 1.5793 25.0614 0.962911 24.4367C0.346523 23.8121 0.000165991 22.9649 0 22.0815L0 3.33259C0 2.44912 0.346303 1.60184 0.962727 0.97713C1.57915 0.352422 2.4152 0.00146484 3.28696 0.00146484C4.15871 0.00146484 4.99476 0.352422 5.61119 0.97713C6.22761 1.60184 6.57391 2.44912 6.57391 3.33259V22.0815C6.57391 22.9649 6.22761 23.8122 5.61119 24.4369C4.99476 25.0616 4.15871 25.4126 3.28696 25.4126Z" fill="#CE48E4"/>
</g>
</g>
<defs>
<clipPath id="clip0">
<rect width="36" height="25.4118" fill="white"/>
</clipPath>
</defs>
</svg>
